<?xml version="1.0" standalone="no"?>
<!DOCTYPE svg PUBLIC "-//W3C//DTD SVG 20010904//EN"
 "http://www.w3.org/TR/2001/REC-SVG-20010904/DTD/svg10.dtd">
<svg version="1.0" xmlns="http://www.w3.org/2000/svg"
 width="235.000000pt" height="235.000000pt" viewBox="0 0 235.000000 235.000000"
 preserveAspectRatio="xMidYMid meet">
<metadata>
Created by potrace 1.11, written by Peter Selinger 2001-2013
</metadata>
<g transform="translate(0.000000,235.000000) scale(0.100000,-0.100000)"
fill="#000000" stroke="none">
<path d="M35 2216 l-25 -25 0 -899 c0 -842 1 -901 18 -921 12 -16 114 -52 385
-136 203 -63 381 -115 396 -115 16 0 185 49 377 110 192 60 356 110 364 110 8
0 176 -50 374 -112 292 -90 363 -109 385 -102 l26 9 3 921 c2 730 -1 924 -10
932 -17 13 -752 242 -778 242 -11 0 -179 -49 -373 -110 -194 -60 -359 -110
-366 -110 -11 0 -689 209 -738 227 -7 3 -24 -7 -38 -21z m510 -241 l200 -63 3
-835 2 -835 -157 50 c-87 27 -229 71 -315 99 l-158 50 0 833 0 834 113 -35
c61 -20 202 -64 312 -98z m1490 0 l200 -63 3 -837 c2 -801 1 -836 -16 -831
-338 108 -508 161 -552 175 l-55 17 -3 836 -2 836 112 -35 c62 -20 203 -64
313 -98z m-665 -125 c25 -25 25 -45 2 -68 -17 -17 -322 -122 -355 -122 -40 0
-60 55 -32 84 13 12 330 124 358 126 4 0 16 -9 27 -20z m0 -230 c49 -49 21
-71 -170 -135 -90 -30 -172 -55 -181 -55 -37 0 -60 46 -40 79 8 13 327 129
359 130 6 1 21 -8 32 -19z m6 -255 c15 -23 15 -27 0 -49 -12 -19 -50 -36 -170
-75 -161 -53 -194 -59 -214 -39 -20 20 -14 66 10 79 40 21 303 107 330 108 19
1 33 -7 44 -24z m6 -230 c21 -47 -4 -65 -179 -122 -87 -29 -169 -53 -181 -53
-12 0 -29 11 -38 25 -30 45 -6 63 167 121 179 61 214 65 231 29z m-6 -250 c33
-50 14 -63 -175 -126 -182 -61 -212 -64 -226 -20 -13 43 10 57 177 114 90 31
173 56 185 56 14 1 29 -9 39 -24z m0 -230 c15 -23 15 -27 0 -49 -12 -19 -50
-36 -170 -75 -166 -55 -196 -60 -220 -35 -44 43 -10 70 165 130 178 61 202 64
225 29z"/>
<path d="M252 1854 c-26 -18 -29 -55 -4 -76 20 -18 316 -118 348 -118 11 0 29
9 40 21 17 19 17 23 3 47 -12 23 -40 36 -179 84 -91 31 -170 57 -175 57 -6 1
-21 -6 -33 -15z"/>
<path d="M252 1624 c-29 -20 -29 -59 1 -78 12 -8 95 -39 185 -68 168 -54 181
-55 206 -16 7 11 5 23 -7 41 -13 20 -51 37 -184 81 -92 31 -170 56 -173 56 -3
0 -16 -7 -28 -16z"/>
<path d="M240 1371 c-14 -27 -13 -56 4 -70 7 -6 89 -36 182 -66 155 -50 171
-53 191 -39 23 14 30 48 15 71 -11 17 -315 123 -352 123 -19 0 -33 -7 -40 -19z"/>
<path d="M258 1156 c-26 -13 -37 -66 -16 -83 20 -16 320 -113 349 -113 14 0
30 5 37 12 16 16 15 54 -3 71 -8 8 -88 40 -179 70 -140 47 -168 53 -188 43z"/>
<path d="M246 894 c-23 -23 -20 -61 7 -78 12 -8 95 -38 184 -67 158 -51 163
-52 183 -34 25 22 26 57 3 77 -19 16 -316 118 -345 118 -9 0 -24 -7 -32 -16z"/>
<path d="M240 661 c-14 -27 -13 -56 4 -70 7 -6 89 -36 182 -66 155 -50 171
-53 191 -39 23 14 30 48 15 71 -11 17 -315 123 -352 123 -19 0 -33 -7 -40 -19z"/>
<path d="M1730 1850 c-50 -50 -16 -78 170 -139 160 -53 198 -59 218 -39 16 16
15 63 0 75 -12 10 -345 123 -361 123 -4 0 -16 -9 -27 -20z"/>
<path d="M1730 1620 c-49 -49 -21 -71 170 -135 172 -58 198 -63 218 -43 16 16
15 63 0 75 -16 13 -334 123 -354 123 -8 0 -23 -9 -34 -20z"/>
<path d="M1733 1382 c-21 -13 -26 -58 -8 -75 21 -22 343 -126 368 -119 10 3
23 15 29 28 21 46 -6 64 -179 122 -159 52 -188 58 -210 44z"/>
<path d="M1749 1162 c-37 -11 -50 -59 -24 -86 17 -16 319 -116 352 -116 46 0
65 59 29 89 -20 17 -340 118 -357 113z"/>
<path d="M1726 888 c-37 -53 -19 -65 183 -133 179 -59 201 -61 216 -15 13 42
-10 57 -182 114 -93 31 -176 56 -185 56 -9 0 -24 -10 -32 -22z"/>
<path d="M1733 672 c-21 -13 -26 -58 -8 -75 9 -9 93 -41 187 -72 179 -57 199
-59 213 -15 14 44 -15 63 -182 118 -159 52 -188 58 -210 44z"/>
</g>
</svg>
